<?xml version="1.0" encoding="utf-8"?>
<!-- Generator: Adobe Illustrator 24.0.0, SVG Export Plug-In . SVG Version: 6.00 Build 0)  -->
<svg version="1.1" id="Layer_1" xmlns="http://www.w3.org/2000/svg" xmlns:xlink="http://www.w3.org/1999/xlink" x="0px" y="0px"
	 viewBox="0 0 500 500" style="enable-background:new 0 0 500 500;" xml:space="preserve">
<style type="text/css">
	.st0{fill:#FFB52A;}
	.st1{fill:#FF6747;}
	.st2{fill:#7D2222;}
	.st3{fill:#FDDEAF;}
	.st4{fill:#F58F29;}
	.st5{fill:#97A09D;}
	.st6{fill:#858C8A;}
	.st7{fill:#FFFFFF;}
	.st8{fill:#FF9BA8;}
	.st9{fill:#15162F;}
	.st10{fill:#B43E18;}
	.st11{fill:none;stroke:#7D2222;stroke-width:1.1767;stroke-linecap:round;stroke-linejoin:round;stroke-miterlimit:10;}
	.st12{fill:#7D9F09;}
	.st13{fill:#FAEDCF;}
	.st14{fill:#75290B;}
	.st15{fill:#FF6B4D;}
	.st16{fill:#F6AB0E;}
	.st17{fill:#8C310D;}
	.st18{fill:#F55D01;}
	.st19{fill:#E03901;}
	.st20{fill:#FFFFFD;}
	.st21{fill:#732A12;}
	.st22{fill:#F05E00;}
	.st23{fill:none;stroke:#732A12;stroke-width:1.0798;stroke-linecap:round;stroke-linejoin:round;stroke-miterlimit:10;}
	.st24{fill:#FF7878;}
	.st25{fill:#FFC19E;}
	.st26{fill:none;}
	.st27{fill:none;stroke:#732A12;stroke-width:2.6732;stroke-linecap:round;stroke-linejoin:round;stroke-miterlimit:10;}
	.st28{fill:#CF4E01;}
	.st29{fill:#B7C2BE;}
	.st30{fill:#00123B;}
	.st31{fill:#FEA01C;}
	.st32{fill:#F55D3D;}
	.st33{fill:#FEDB9C;}
	.st34{fill:#D17317;}
	.st35{fill:#FEDB9C;stroke:#7D2222;stroke-width:0.7404;stroke-linecap:round;stroke-linejoin:round;stroke-miterlimit:10;}
	.st36{fill:#FEDB9C;stroke:#7D2222;stroke-width:0.7729;stroke-linecap:round;stroke-linejoin:round;stroke-miterlimit:10;}
	.st37{fill:none;stroke:#7D2222;stroke-width:0.7729;stroke-linecap:round;stroke-linejoin:round;stroke-miterlimit:10;}
	.st38{fill:#F9FBFC;}
	.st39{fill:#F6C8CC;}
	.st40{fill:#DB7B8E;}
	.st41{fill:#243350;}
	.st42{fill:#767778;}
	.st43{fill:#F9AC02;}
	.st44{fill:#F05174;}
	.st45{fill:#2C1A1B;}
	.st46{fill:#D06402;}
	.st47{fill:#B3B3B3;}
	.st48{fill:#FBA5AE;}
	.st49{fill:#363636;}
	.st50{fill:#A3A3A3;}
	.st51{fill:#F9DFC6;}
	.st52{fill:#CA7A43;}
	.st53{fill:#5F3423;}
	.st54{fill:#DE3757;}
	.st55{fill:#E2A364;}
	.st56{fill:#FFE3C9;}
	.st57{fill:#281A1A;}
	.st58{fill:#EC7F7F;}
	.st59{fill:#CF8248;}
	.st60{fill:#F6E7D3;}
	.st61{fill:#573640;}
	.st62{fill:#AF2B4C;}
	.st63{fill:#9D532F;}
	.st64{fill:#571016;}
	.st65{fill:#FDFDF9;}
	.st66{fill:#942B1D;}
	.st67{fill:#C2552A;}
	.st68{fill:#EF772E;}
	.st69{fill:#E4E6E7;}
	.st70{fill:none;stroke:#243350;stroke-width:0.4733;stroke-miterlimit:10;}
	.st71{fill:none;stroke:#7D2222;stroke-width:2.5806;stroke-linecap:round;stroke-linejoin:round;stroke-miterlimit:10;}
	.st72{fill:none;stroke:#243350;stroke-width:1.0322;stroke-miterlimit:10;}
	.st73{fill:none;stroke:#2C1A1B;stroke-width:0.4342;stroke-linecap:round;stroke-linejoin:round;stroke-miterlimit:10;}
	.st74{fill:none;stroke:#2C1A1B;stroke-width:0.8683;stroke-linecap:round;stroke-linejoin:round;stroke-miterlimit:10;}
	.st75{fill:#3B3B3D;stroke:#3B3B3D;stroke-width:0.3117;stroke-miterlimit:10;}
	.st76{fill:#F9A4A5;}
	.st77{fill:#FFCC6E;}
	.st78{fill:#A9444B;}
	.st79{fill:none;stroke:#3B3B3D;stroke-width:0.935;stroke-linecap:round;stroke-linejoin:round;stroke-miterlimit:10;}
	.st80{fill:#3B3B3D;}
	.st81{fill:#FB8A00;}
	.st82{fill:#F6EADE;}
	.st83{fill:#BDBAB2;}
	.st84{fill:#947861;}
	.st85{fill:#2E1F1D;}
	.st86{fill:#86827C;}
	.st87{fill:none;stroke:#7D2222;stroke-width:1.0198;stroke-linecap:round;stroke-linejoin:round;stroke-miterlimit:10;}
	.st88{fill:#FEDB9C;stroke:#7D2222;stroke-width:1.4293;stroke-linecap:round;stroke-linejoin:round;stroke-miterlimit:10;}
	.st89{fill:#FEDB9C;stroke:#7D2222;stroke-width:1.4921;stroke-linecap:round;stroke-linejoin:round;stroke-miterlimit:10;}
	.st90{fill:none;stroke:#7D2222;stroke-width:1.4921;stroke-linecap:round;stroke-linejoin:round;stroke-miterlimit:10;}
	.st91{fill:#3B3B3D;stroke:#3B3B3D;stroke-width:0.7305;stroke-miterlimit:10;}
	.st92{fill:none;stroke:#3B3B3D;stroke-width:2.1916;stroke-linecap:round;stroke-linejoin:round;stroke-miterlimit:10;}
	.st93{fill:none;stroke:#7D2222;stroke-width:3.0894;stroke-linecap:round;stroke-linejoin:round;stroke-miterlimit:10;}
	.st94{fill:none;stroke:#2E1F1D;stroke-width:0.6143;stroke-linecap:round;stroke-linejoin:round;stroke-miterlimit:10;}
	.st95{fill:none;stroke:#00FF00;stroke-width:0.2326;stroke-miterlimit:10;}
	.st96{fill:none;stroke:#2C1A1B;stroke-width:1.0325;stroke-linecap:round;stroke-linejoin:round;stroke-miterlimit:10;}
	.st97{fill:none;stroke:#2C1A1B;stroke-width:2.0651;stroke-linecap:round;stroke-linejoin:round;stroke-miterlimit:10;}
	.st98{fill:none;stroke:#2E1F1D;stroke-width:1.3604;stroke-linecap:round;stroke-linejoin:round;stroke-miterlimit:10;}
	.st99{fill:none;stroke:#00FF00;stroke-width:0.3936;stroke-miterlimit:10;}
	.st100{fill:#B2B2B2;}
	.st101{fill:#858585;}
	.st102{fill:#573126;}
	.st103{fill:#E9CFB8;}
</style>
<g>
	<g>
		<path class="st18" d="M416.89,315.76c5.76,36.62-2.37,73.4-28.81,99.35c-11.76,11.57-27.17,20.99-46.58,27.29
			c-14.53,4.73-31.28,7.7-50.46,8.51c-2.84,0.13-7.99-39.27-4.77-86.08c0.53-7.78,1.29-15.77,2.33-23.82
			c0.75-5.72,1.64-11.48,2.68-17.21c3.23-17.7,7.97-35.19,14.76-50.87c7.89-18.23,18.54-34.04,32.77-44.96
			c69.49-53.3,108.63-21.64,108.63-21.64s-30.52,33.15-32.13,84.24c-0.15,4.83-0.04,9.82,0.37,14.97c0,0,0.01,0.07,0.01,0.2
			C415.95,309.03,416.35,312.37,416.89,315.76z"/>
		<path class="st19" d="M388.08,415.12c-11.76,11.57-27.17,20.99-46.58,27.29c-14.53,4.73-31.28,7.7-50.46,8.51
			c-2.84,0.13-7.99-39.27-4.77-86.08c0.53-7.78,1.29-15.77,2.33-23.82c0.75-5.72,1.64-11.48,2.68-17.21
			c-0.57,14-6.36,48.34,27.66,38.11c9.59-2.88,23.63,8.78,23.63,19.02c0,22.86,12.25,47.72,49.52,11.7
			c35.52-34.33,23.71-84.89,23.6-86.88c0.26,3.28,0.66,6.61,1.2,10.01C422.65,352.38,414.52,389.16,388.08,415.12z"/>
		<path class="st20" d="M447.44,206.34c0,0-30.52,33.15-32.13,84.24c-1.38,0.75-2.41,0.73-2.98-0.23
			c-4.95-8.24-5.68-25.97-5.68-25.97c-7.13,5.12-14.44,19.39-14.44,19.39c-7.32-7.51-10.43-31.65-10.43-31.65
			c-9.32,4.21-23.41,25.43-23.41,25.43c-6.2-13.17-2.55-40.06-2.55-40.06s-5.5,0.38-24.52,13.72c-9.44,6.63-18.48,14.92-25.27,21.73
			c7.89-18.23,18.54-34.04,32.77-44.96C408.3,174.68,447.44,206.34,447.44,206.34z"/>
	</g>
	<g>
		<path class="st7" d="M162.88,237.56c-0.49,1.46-20.97,61.94-17.07,129.23c3.9,67.3,33.16,96.07,63.89,103.39
			c30.72,7.32,67.3-24.87,76.57-69.25c9.27-44.38-9.27-146-24.38-165.9L162.88,237.56z"/>
		<g>
			<path class="st18" d="M342.57,477.98c-0.06,14.86-59.6,3.91-82.52,4.87c-16.85,0.72-23.95-3.92-24.01-10.83
				c-0.03-2.49,0.86-5.27,2.55-8.19c0.76-1.33,41.45-90.21,74.13-90.71c31.56-0.47,33.08,51.38-1.57,79.53c0,0-0.15,0.13-0.45,0.38
				c-0.41,0.32-0.82,0.63-1.23,0.95c-0.04,0.03-0.07,0.06-0.12,0.09c-0.66,0.51-1.33,1-2,1.48
				C307.35,455.56,342.67,448.24,342.57,477.98z"/>
			<path class="st21" d="M342.57,477.98c-0.06,14.86-59.6,3.91-82.52,4.87c-16.85,0.72-23.95-3.92-24.01-10.83
				c5.85-1.17,13.04-2.05,21.87-2.46c29.57-1.39,50.11-14.5,49.44-14.02C307.35,455.56,342.67,448.24,342.57,477.98z"/>
		</g>
		<g>
			<path class="st18" d="M89.74,477.98c0.06,14.86,59.6,3.91,82.52,4.87c16.85,0.72,23.95-3.92,24.01-10.83
				c0.03-2.49-0.86-5.27-2.55-8.19c-0.76-1.33-41.45-90.21-74.13-90.71c-31.56-0.47-33.08,51.38,1.57,79.53c0,0,0.15,0.13,0.45,0.38
				c0.41,0.32,0.82,0.63,1.23,0.95c0.04,0.03,0.07,0.06,0.12,0.09c0.66,0.51,1.33,1,2,1.48C124.95,455.56,89.64,448.24,89.74,477.98
				z"/>
			<path class="st21" d="M89.74,477.98c0.06,14.86,59.6,3.91,82.52,4.87c16.85,0.72,23.95-3.92,24.01-10.83
				c-5.85-1.17-13.04-2.05-21.87-2.46c-29.57-1.39-50.11-14.5-49.44-14.02C124.95,455.56,89.64,448.24,89.74,477.98z"/>
		</g>
		<g>
			<path class="st18" d="M287.82,408.21c-6.22,39.4-18.92,68.41-24.59,74.59c-10.74,11.65-13.18-3.83-13.18-3.83
				s-2.43,8.28-8.78,10.72c-6.34,2.44-17.95-1.77-11.21-26.33c3.29-12.06,5.37-32.36,6.64-52.46c1.96-30.36,2.14-60.19,2.14-60.19
				s12.87-12.93,26.82-33.65c13.94-20.72,13.97-29.71,13.97-29.71C293.77,330.01,293.35,373.22,287.82,408.21z"/>
			<path class="st21" d="M287.82,408.21c-6.22,39.4-18.92,68.41-24.59,74.59c-10.74,11.65-13.18-3.83-13.18-3.83
				s-2.43,8.28-8.78,10.72c-6.34,2.44-17.95-1.77-11.21-26.33c3.29-12.06,5.37-32.36,6.64-52.46
				C249.12,404.32,272.12,396.26,287.82,408.21z"/>
		</g>
		<g>
			<path class="st18" d="M142.28,405.29c6.22,39.4,18.92,68.41,24.59,74.59c10.74,11.65,13.18-3.83,13.18-3.83s2.43,8.28,8.78,10.72
				c6.34,2.44,17.95-1.77,11.21-26.33c-3.29-12.06-5.37-32.36-6.64-52.46c-1.96-30.36-2.14-60.19-2.14-60.19
				s-12.87-12.93-26.82-33.65c-13.94-20.72-13.97-29.71-13.97-29.71C136.32,327.09,136.75,370.29,142.28,405.29z"/>
			<path class="st21" d="M142.28,405.29c6.22,39.4,18.92,68.41,24.59,74.59c10.74,11.65,13.18-3.83,13.18-3.83s2.43,8.28,8.78,10.72
				c6.34,2.44,17.95-1.77,11.21-26.33c-3.29-12.06-5.37-32.36-6.64-52.46C180.97,401.39,157.98,393.33,142.28,405.29z"/>
		</g>
	</g>
	<g>
		<path class="st22" d="M360.41,163.31c0,0-0.75,1.08-2.05,2.96c-5.37,7.67-20.34,28.5-32.7,40.57
			c-15.36,15-91.07,65.47-164.59,32.92c-61.7-27.31-81.4-61.59-86.14-71.91c-0.91-1.97-1.27-3.07-1.27-3.07
			c7.32-2.93,33.28-42.06,67.3-78.27c34.02-36.21,82.18-30.24,82.18-30.24c30.96,1.59,68.15,20.73,86.8,48.89
			C327.22,131.26,360.41,163.31,360.41,163.31z"/>
		<path class="st7" d="M358.36,166.27c-5.37,7.67-20.34,28.5-32.7,40.57c-11.58,11.31-57.49,43.9-110.89,44.74
			c-17.41,0.27-35.89-2.24-53.97-10.24c-61.7-27.31-81.14-63.18-85.88-73.49c5.93,2.28,14.26,3.48,25.31,0.1
			c23.89-7.32,21.45-32.19,48.28-34.15c26.82-1.95,44.86,26.83,48.76,46.33c3.91,19.5,7.4,38.52,21.74,35.11
			c14.35-3.41,14.84-64.37,44.58-76.56c29.76-12.2,41.46,16.09,59.02,26.33C335.97,172.82,350.18,170.73,358.36,166.27z"/>
		<g>
			<path class="st27" d="M191.58,223.86c0,0,2.84,7.19,11.64,6.89c8.81-0.3,11.28-4.46,11.28-4.46s6.03,6.25,16.57,4.46
				c8.4-1.43,10.63-8.31,10.63-8.31"/>
		</g>
		<path class="st21" d="M230.86,205.13c1.28,5.12-3.02,17.86-16.15,17.3c-13.02-0.56-17.94-15.41-15.75-17.78
			C201.16,202.26,229.58,200.01,230.86,205.13z"/>
		<g>
			<path class="st21" d="M287.53,175.64c0,9.09-6.11,16.46-13.64,16.46c-7.53,0-13.64-7.37-13.64-16.46
				c0-9.09,6.11-16.46,13.64-16.46C281.43,159.18,287.53,166.55,287.53,175.64z"/>
			
				<ellipse transform="matrix(0.7071 -0.7071 0.7071 0.7071 -40.065 245.2177)" class="st7" cx="275.98" cy="170.97" rx="6.24" ry="8.18"/>
		</g>
		<g>
			<ellipse class="st21" cx="158.01" cy="177.33" rx="13.64" ry="16.46"/>
			<path class="st7" d="M164.5,168.26c3.2,3.2,3.81,7.76,1.38,10.2c-2.44,2.44-7,1.82-10.2-1.38c-3.2-3.2-3.81-7.76-1.38-10.2
				C156.74,164.44,161.3,165.06,164.5,168.26z"/>
		</g>
		<path class="st24" d="M308.29,201.81c0,4.43-6.75,8.02-15.09,8.02c-8.33,0-15.09-3.59-15.09-8.02s6.75-8.02,15.09-8.02
			C301.53,193.79,308.29,197.38,308.29,201.81z"/>
		<path class="st24" d="M149.18,201.81c0,4.43-6.75,8.02-15.09,8.02c-8.33,0-15.09-3.59-15.09-8.02s6.75-8.02,15.09-8.02
			C142.43,193.79,149.18,197.38,149.18,201.81z"/>
		<g>
			<path class="st22" d="M250.31,73.33c-0.38-2.28,4.94-21.58,42.89-42.43c29.26-16.07,48.78-19.32,56.19-19.96
				c1.89-0.16,3.58,1.15,3.86,3.03c1.47,9.71,4.94,39.83-3.82,65.21c-10.61,30.72-31.46,47.18-31.46,47.18
				S251.78,82.11,250.31,73.33z"/>
			<path class="st25" d="M277.57,62.85c-0.49,0.61,31.38,18.71,38.94,35.9c0,0,26.23-39.6,20.73-62.91
				C335.17,27.07,281.04,58.52,277.57,62.85z"/>
		</g>
		<g>
			<path class="st22" d="M179.98,74.66c0.38-2.28-4.94-21.58-42.89-42.43C107.84,16.16,88.31,12.92,80.9,12.27
				c-1.89-0.16-3.58,1.15-3.86,3.03c-1.47,9.71-4.94,39.83,3.82,65.21c10.61,30.72,31.46,47.18,31.46,47.18
				S178.51,83.44,179.98,74.66z"/>
			<path class="st24" d="M152.72,64.18c0.49,0.61-31.38,18.71-38.94,35.9c0,0-26.23-39.6-20.73-62.91
				C95.12,28.39,149.25,59.85,152.72,64.18z"/>
		</g>
		<g>
			<path class="st22" d="M250.31,73.33c-0.38-2.28,4.94-21.58,42.89-42.43c29.26-16.07,48.78-19.32,56.19-19.96
				c1.89-0.16,3.58,1.15,3.86,3.03c1.47,9.71,4.94,39.83-3.82,65.21c-10.61,30.72-31.46,47.18-31.46,47.18
				S251.78,82.11,250.31,73.33z"/>
			<path class="st24" d="M277.57,62.85c-0.49,0.61,31.38,18.71,38.94,35.9c0,0,26.23-39.6,20.73-62.91
				C335.17,27.07,281.04,58.52,277.57,62.85z"/>
		</g>
	</g>
</g>
</svg>
