<?xml version="1.0" encoding="utf-8"?>
<!-- Generator: Adobe Illustrator 24.0.0, SVG Export Plug-In . SVG Version: 6.00 Build 0)  -->
<svg version="1.1" id="Layer_1" xmlns="http://www.w3.org/2000/svg" xmlns:xlink="http://www.w3.org/1999/xlink" x="0px" y="0px"
	 viewBox="0 0 500 500" style="enable-background:new 0 0 500 500;" xml:space="preserve">
<style type="text/css">
	.st0{fill:#FFB52A;}
	.st1{fill:#FF6747;}
	.st2{fill:#7D2222;}
	.st3{fill:#FDDEAF;}
	.st4{fill:#F58F29;}
	.st5{fill:#97A09D;}
	.st6{fill:#858C8A;}
	.st7{fill:#FFFFFF;}
	.st8{fill:#FF9BA8;}
	.st9{fill:#15162F;}
	.st10{fill:#B43E18;}
	.st11{fill:none;stroke:#7D2222;stroke-width:1.1767;stroke-linecap:round;stroke-linejoin:round;stroke-miterlimit:10;}
	.st12{fill:#7D9F09;}
	.st13{fill:#FAEDCF;}
	.st14{fill:#75290B;}
	.st15{fill:#FF6B4D;}
	.st16{fill:#F6AB0E;}
	.st17{fill:#8C310D;}
	.st18{fill:#F55D01;}
	.st19{fill:#E03901;}
	.st20{fill:#FFFFFD;}
	.st21{fill:#732A12;}
	.st22{fill:#F05E00;}
	.st23{fill:none;stroke:#732A12;stroke-width:1.0798;stroke-linecap:round;stroke-linejoin:round;stroke-miterlimit:10;}
	.st24{fill:#FF7878;}
	.st25{fill:#FFC19E;}
	.st26{fill:none;}
	.st27{fill:none;stroke:#732A12;stroke-width:2.6732;stroke-linecap:round;stroke-linejoin:round;stroke-miterlimit:10;}
	.st28{fill:#CF4E01;}
	.st29{fill:#B7C2BE;}
	.st30{fill:#00123B;}
	.st31{fill:#FEA01C;}
	.st32{fill:#F55D3D;}
	.st33{fill:#FEDB9C;}
	.st34{fill:#D17317;}
	.st35{fill:#FEDB9C;stroke:#7D2222;stroke-width:0.7404;stroke-linecap:round;stroke-linejoin:round;stroke-miterlimit:10;}
	.st36{fill:#FEDB9C;stroke:#7D2222;stroke-width:0.7729;stroke-linecap:round;stroke-linejoin:round;stroke-miterlimit:10;}
	.st37{fill:none;stroke:#7D2222;stroke-width:0.7729;stroke-linecap:round;stroke-linejoin:round;stroke-miterlimit:10;}
	.st38{fill:#F9FBFC;}
	.st39{fill:#F6C8CC;}
	.st40{fill:#DB7B8E;}
	.st41{fill:#243350;}
	.st42{fill:#767778;}
	.st43{fill:#F9AC02;}
	.st44{fill:#F05174;}
	.st45{fill:#2C1A1B;}
	.st46{fill:#D06402;}
	.st47{fill:#B3B3B3;}
	.st48{fill:#FBA5AE;}
	.st49{fill:#363636;}
	.st50{fill:#A3A3A3;}
	.st51{fill:#F9DFC6;}
	.st52{fill:#CA7A43;}
	.st53{fill:#5F3423;}
	.st54{fill:#DE3757;}
	.st55{fill:#E2A364;}
	.st56{fill:#FFE3C9;}
	.st57{fill:#281A1A;}
	.st58{fill:#EC7F7F;}
	.st59{fill:#CF8248;}
	.st60{fill:#F6E7D3;}
	.st61{fill:#573640;}
	.st62{fill:#AF2B4C;}
	.st63{fill:#9D532F;}
	.st64{fill:#571016;}
	.st65{fill:#FDFDF9;}
	.st66{fill:#942B1D;}
	.st67{fill:#C2552A;}
	.st68{fill:#EF772E;}
	.st69{fill:#E4E6E7;}
	.st70{fill:none;stroke:#243350;stroke-width:0.4733;stroke-miterlimit:10;}
	.st71{fill:none;stroke:#7D2222;stroke-width:2.5806;stroke-linecap:round;stroke-linejoin:round;stroke-miterlimit:10;}
	.st72{fill:none;stroke:#243350;stroke-width:1.0322;stroke-miterlimit:10;}
	.st73{fill:none;stroke:#2C1A1B;stroke-width:0.4342;stroke-linecap:round;stroke-linejoin:round;stroke-miterlimit:10;}
	.st74{fill:none;stroke:#2C1A1B;stroke-width:0.8683;stroke-linecap:round;stroke-linejoin:round;stroke-miterlimit:10;}
	.st75{fill:#3B3B3D;stroke:#3B3B3D;stroke-width:0.3117;stroke-miterlimit:10;}
	.st76{fill:#F9A4A5;}
	.st77{fill:#FFCC6E;}
	.st78{fill:#A9444B;}
	.st79{fill:none;stroke:#3B3B3D;stroke-width:0.935;stroke-linecap:round;stroke-linejoin:round;stroke-miterlimit:10;}
	.st80{fill:#3B3B3D;}
	.st81{fill:#FB8A00;}
	.st82{fill:#F6EADE;}
	.st83{fill:#BDBAB2;}
	.st84{fill:#947861;}
	.st85{fill:#2E1F1D;}
	.st86{fill:#86827C;}
	.st87{fill:none;stroke:#7D2222;stroke-width:1.0198;stroke-linecap:round;stroke-linejoin:round;stroke-miterlimit:10;}
	.st88{fill:#FEDB9C;stroke:#7D2222;stroke-width:1.4293;stroke-linecap:round;stroke-linejoin:round;stroke-miterlimit:10;}
	.st89{fill:#FEDB9C;stroke:#7D2222;stroke-width:1.4921;stroke-linecap:round;stroke-linejoin:round;stroke-miterlimit:10;}
	.st90{fill:none;stroke:#7D2222;stroke-width:1.4921;stroke-linecap:round;stroke-linejoin:round;stroke-miterlimit:10;}
	.st91{fill:#3B3B3D;stroke:#3B3B3D;stroke-width:0.7305;stroke-miterlimit:10;}
	.st92{fill:none;stroke:#3B3B3D;stroke-width:2.1916;stroke-linecap:round;stroke-linejoin:round;stroke-miterlimit:10;}
	.st93{fill:none;stroke:#7D2222;stroke-width:3.0894;stroke-linecap:round;stroke-linejoin:round;stroke-miterlimit:10;}
	.st94{fill:none;stroke:#2E1F1D;stroke-width:0.6143;stroke-linecap:round;stroke-linejoin:round;stroke-miterlimit:10;}
	.st95{fill:none;stroke:#00FF00;stroke-width:0.2326;stroke-miterlimit:10;}
	.st96{fill:none;stroke:#2C1A1B;stroke-width:1.0325;stroke-linecap:round;stroke-linejoin:round;stroke-miterlimit:10;}
	.st97{fill:none;stroke:#2C1A1B;stroke-width:2.0651;stroke-linecap:round;stroke-linejoin:round;stroke-miterlimit:10;}
	.st98{fill:none;stroke:#2E1F1D;stroke-width:1.3604;stroke-linecap:round;stroke-linejoin:round;stroke-miterlimit:10;}
	.st99{fill:none;stroke:#00FF00;stroke-width:0.3936;stroke-miterlimit:10;}
	.st100{fill:#B2B2B2;}
	.st101{fill:#858585;}
	.st102{fill:#573126;}
	.st103{fill:#E9CFB8;}
</style>
<g>
	<g>
		<g>
			<path class="st68" d="M469.09,315.65c-5.65,0.91-11.92,1.12-18.44,0.74C444,316,437.08,315,430.3,313.5
				c-4.68-1.03-9.3-2.3-13.72-3.77c-8.44-2.8-16.18-6.33-22.34-10.32c-1.27-0.82-2.47-1.66-3.6-2.53c-2.43-1.85-4.6-3.86-6.55-5.96
				c-12.24-13.18-15.53-29.97-17.46-35.63c-1.41-4.13-13.86-27.13-22.87-43.55c-1.59-2.9-3.08-5.6-4.38-7.95
				c-2.96-5.36-4.94-8.93-5-9.04c0.12,0.03,2.07,0.57,5.18,1.67c4.39,1.56,11.07,4.26,18.12,8.29c7.85,4.48,16.17,10.62,22.28,18.67
				c0,0,0,0,0,0.01c2.04,2.68,3.83,5.57,5.28,8.69c1.14,2.44,2.34,4.84,3.61,7.18c3.44,6.38,7.33,12.36,11.59,17.73
				c4.63,5.84,9.71,10.96,15.11,15.1c7.99,6.12,16.71,10.12,25.84,11.15c4.22,0.48,8.16,0.5,11.83,0.29
				c16.47-0.96,27.67-6.72,34.74,2.07C496.64,296.36,493.62,311.71,469.09,315.65z"/>
			<path class="st66" d="M376.6,263.42c5.9-13.48,4.9-29.85,3.37-40.03c2.04,2.68,3.83,5.57,5.28,8.69
				c1.14,2.44,2.34,4.84,3.61,7.18C387.1,251.73,376.95,263.04,376.6,263.42z"/>
			<path class="st66" d="M415.56,272.09c-5.66,16.71-16.87,24.71-21.33,27.33c-1.27-0.82-2.47-1.66-3.6-2.53
				c-2.43-1.85-4.6-3.86-6.55-5.96c7.39-8.21,13.8-23.64,16.37-33.94C405.08,262.82,410.16,267.94,415.56,272.09z"/>
			<path class="st66" d="M430.3,313.5c-4.68-1.03-9.3-2.3-13.72-3.77c4.48-3.88,11.55-11.8,14.59-25.83
				C431.17,283.9,433.9,299.38,430.3,313.5z"/>
			<path class="st66" d="M469.09,315.65c-5.65,0.91-11.92,1.12-18.44,0.74c3.12-13.49,2.9-26.92,2.59-32.86
				c16.47-0.96,27.67-6.72,34.74,2.07C496.64,296.36,493.62,311.71,469.09,315.65z"/>
		</g>
		<path class="st67" d="M265.08,325.91c0,0,6.4,14.96,11.91,24.21c5.51,9.25,7.58,9.81,7.58,11.18s-6.95,13.32-7.61,13.58
			c-0.66,0.26-12.86-1.51-16.79,8.07c-3.94,9.58,2.3,15.61,9.38,15.68c7.08,0.07,25.32,1.44,29.26-1.57
			c3.94-3.02,21.06-28.47,22.37-31.09c1.31-2.62,1.84-9.58-5.12-21.25c-6.95-11.68-11.41-23.22-11.41-23.22L265.08,325.91z"/>
		<path class="st67" d="M203.09,397.84c-4.2,3.67-23.88,3.28-32.47,2.16c-8.59-1.11-11.35-8.66-7.94-15.55
			c3.41-6.89,11.22-6.76,12.93-8.33c0.56-0.52-1.76-8.23-5.11-18.31c-0.71-2.13-1.46-4.36-2.25-6.65
			c-6.73-19.72-15.6-43.92-15.6-43.92s45.26-1.18,48.15,11.94c1.52,6.92,3.19,21.71,4.56,35.28c0.31,3.09,0.61,6.12,0.89,8.98
			c0.81,8.36,1.44,15.26,1.77,17.99C208.93,389.18,207.29,394.17,203.09,397.84z"/>
		<path class="st66" d="M180.36,347.95l-9.87,9.87c-0.71-2.13-1.46-4.36-2.25-6.65L180.36,347.95z"/>
		<path class="st66" d="M205.36,354.47c0.31,3.09,0.61,6.12,0.89,8.98c-10.02,3.62-20.37-1.72-20.37-1.72
			C194.37,361.37,201.32,357.43,205.36,354.47z"/>
		<path class="st68" d="M368.74,256.41c-3.47,23.41-19.33,61.71-78.28,76.58c-81.87,20.66-148.74-19.73-158.81-25.68
			c-7.21-4.26-10.63-16.92-10.63-16.92s-0.59,5.18-0.2,9.12c0,0-4.33-4.27-5.64-16.66c0,0-3.09,4.13-3.35,8.2
			c0,0-3.94-5.38-3.22-17.12c0,0-2.29,3.28-2.89,6.16c0,0-5.71-7.87-0.33-20.33l-6.1,4.26c0,0,4.53-16.86,4.27-26.57
			c-0.11-4.17,7-23.25,15.16-43.68c10.85-27.16,23.54-56.69,23.54-56.69s9.29,13.03,26.2,25.52c2.38,1.76,4.92,3.51,7.6,5.21
			c0.3,0.19,0.6,0.38,0.9,0.57c5.21,3.25,10.96,6.29,17.22,8.88c2.5,1.03,5.07,1.99,7.73,2.85c3.47,1.13,7.07,2.11,10.8,2.89
			c2.29,0.48,4.55,0.92,6.79,1.32c3.46,0.62,6.87,1.15,10.21,1.6c6.45,0.87,12.7,1.46,18.78,1.87c4.55,0.31,9,0.52,13.39,0.67
			c14.04,0.5,27.37,0.46,40.65,1.36c5.29,0.36,10.56,0.87,15.87,1.63c2.98,0.42,5.97,0.92,8.99,1.52c2.48,0.49,4.8,1.08,6.98,1.77
			c1.84,0.57,3.58,1.21,5.22,1.91c7.49,3.17,12.96,7.51,17.01,12.21c9.47,11.02,11.1,24.1,12.39,29.24
			C369.57,240.46,370.09,247.31,368.74,256.41z"/>
		<path class="st66" d="M257.86,250.44c0,0,8.59,26.96-3.02,58.45l-26.76-3.74C228.08,305.15,253.6,285.47,257.86,250.44z"/>
		<path class="st65" d="M368.74,256.41c-3.47,23.41-19.33,61.71-78.28,76.58c-81.87,20.66-148.74-19.73-158.81-25.68
			c-7.21-4.26-10.63-16.92-10.63-16.92s-0.59,5.18-0.2,9.12c0,0-4.33-4.27-5.64-16.66c0,0-3.09,4.13-3.35,8.2
			c0,0-3.94-5.38-3.22-17.12c0,0-2.29,3.28-2.89,6.16c0,0-5.71-7.87-0.33-20.33l-6.1,4.26c0,0,4.53-16.86,4.27-26.57
			c-0.11-4.17,7-23.25,15.16-43.68c2.61,14.15,16.93,78.48,64.47,97.01c53.53,20.86,107.65,14.37,143.46-3.74
			C355.02,272.72,365.57,260.77,368.74,256.41z"/>
		<path class="st68" d="M369.77,396.36c-2.66,3.94-14.86,6-24.01,5.51c-9.15-0.49-17.22-5.12-14.56-14.46
			c2.66-9.35,11.02-9.45,12.3-10.04c1.28-0.59,3.05-17.42,2.07-18.1c-0.7-0.49-13.8-5.16-26.99-13.37
			c-3.98-2.48-7.98-5.28-11.65-8.38c-1.17-0.98-2.29-2-3.38-3.05c-15.84-15.25-20.07-43.69-20.07-43.69s71.99-88.75,79.6-71.44
			s9.32,36.47,6.17,56.94c-3.15,20.47-11.68,32.7-11.68,36.44c0,3.4,1.9,8.19,6.54,14.7c0.46,0.65,0.94,1.31,1.46,1.99
			c1.29,1.7,2.69,3.26,4.08,4.72c4.78,4.99,9.52,8.84,9.83,13.51C379.88,353.69,372.43,392.43,369.77,396.36z"/>
		<path class="st66" d="M339.73,310.92c0,0-1.89,25.19-21.15,34.98c-3.98-2.48-7.98-5.28-11.65-8.38
			C313.85,335.53,331.96,328.77,339.73,310.92z"/>
		<path class="st66" d="M369.66,334.15c-6.65,9.1-21.23,15.59-16.15,10.89c3.75-3.48,8.32-12.66,10.61-17.6
			c0.46,0.65,0.94,1.31,1.46,1.99C366.86,331.13,368.26,332.69,369.66,334.15z"/>
		<path class="st65" d="M154.22,182.09c0,0,5.97-0.52,11.94,4.66l-3.28,1.31c0,0,6.36,3.61,6.63,4.33c0.26,0.72-7.15,2.43-7.15,2.43
			s8.59,5.31,6.82,7.94c-1.77,2.62-8.33,2.16-8.33,2.16s5.58,7.35,5.51,8.79c-0.07,1.44-6.43,1.44-8.46,0c0,0,3.02,3.61,1.84,10.5
			c0,0-1.51-3.94-6.1-4.99c0,0-2.03,11.22-3.8,11.22s-6.69-4.72-6.69-4.72s-3.48,6.63-5.18,7.08c-1.71,0.46-10.56-2.62-10.56-2.62
			s-4,4.82-3.9,9.05c0,0-3.05-0.98-2.76-5.61c0,0-3.25,4.82-5.31,5.71c-2.07,0.89-4.92-8.86-4.92-9.15S154.22,182.09,154.22,182.09z
			"/>
		<path class="st65" d="M41.65,167.99c0,0-4.68-1.89-10.76,0.82l2.32,1.86c0,0-6.01,1.35-6.4,1.86c-0.39,0.52,5.17,3.71,5.17,3.71
			s-8.23,2.17-7.44,4.72c0.78,2.55,6.18,3.79,6.18,3.79s-6.29,4.55-6.6,5.73c-0.3,1.18,4.83,2.74,6.82,2.08c0,0-3.32,2.17-4.05,8.01
			c0,0,2.18-2.8,6.14-2.52c0,0-1.11,9.54,0.31,9.97c1.43,0.43,6.55-2.16,6.55-2.16s1.18,6.19,2.44,6.98s9.15,0.48,9.15,0.48
			s2.04,4.87,0.92,8.25c0,0,2.7-0.04,3.6-3.84c0,0,1.43,4.68,2.88,5.9s6.14-5.93,6.21-6.17C65.16,217.22,41.65,167.99,41.65,167.99z
			"/>
		<g>
			<path class="st66" d="M176.09,167.82c-2.27,11.28-11.24,19.92-11.24,19.92c3.58-6.61,3.82-18.55,3.64-25.13
				C170.87,164.37,173.41,166.12,176.09,167.82z"/>
			<path class="st66" d="M176.99,168.38c5.21,3.25,10.96,6.29,17.22,8.88c-0.95,29.33-25.04,56.61-25.42,57.04
				C180.41,210.61,178.16,178.96,176.99,168.38z"/>
			<path class="st66" d="M217.59,215.94c-6.03,28.73-21.65,44.22-21.65,44.22c15.6-37.68,8.66-70.39,5.99-80.04
				c3.47,1.13,7.07,2.11,10.8,2.89c2.29,0.48,4.55,0.92,6.79,1.32C220.39,191.64,220.47,202.22,217.59,215.94z"/>
			<path class="st66" d="M248.51,187.8c1.25,8.98,1.7,23.04-2.71,40.48c-7.87,31.09-26.63,47.36-26.63,47.36s9.32-13.91,15.09-44.6
				c4.34-23.08-1.41-38.75-4.52-45.1C236.18,186.8,242.43,187.39,248.51,187.8z"/>
			<path class="st66" d="M302.54,189.83c1.85,57.49-27.46,94.28-29.24,96.46c0.77-1.02,6.92-10,9.62-38.99
				c2.89-30.96-3.28-43.69-3.28-43.69c1.94,16.43-5.69,32.6-5.9,33.05c0.07-0.26,2.54-8.86-2.89-30.69
				c-1.85-7.44-5.25-13.17-8.96-17.5C275.94,188.97,289.26,188.93,302.54,189.83z"/>
			<path class="st66" d="M312.71,243.94c9.73-27.11,7.38-45.33,5.7-52.48c2.98,0.42,5.97,0.92,8.99,1.52
				c2.48,0.49,4.8,1.08,6.98,1.77C331.11,221.75,313,243.6,312.71,243.94z"/>
			<path class="st66" d="M356.6,208.87c-1.55,6.65-3.81,14.87-7.1,24.45c-9.37,27.33-33.47,54.09-33.84,54.51
				c20.48-37,23.5-80.78,23.93-91.17C347.08,199.83,352.56,204.16,356.6,208.87z"/>
		</g>
		<path class="st68" d="M182.43,269.2c-3.94,19.55-12.72,46.7-19.16,58.9c-6.43,12.2-32.6,48.87-39.42,55.5
			c-6.82,6.63-20.21,6.3-30.83-1.05c-10.63-7.35-12.66-16.4-6.69-23.88c5.97-7.48,16.99-3.94,16.99-3.94s6.03-9.68,12.49-25.65
			c1.36-3.35,2.73-6.98,4.08-10.85c2.48-7.14,4.84-15.11,6.78-23.71c0.17-0.73,0.32-1.46,0.47-2.19c0.92-4.36,1.63-8.71,2.18-12.98
			c3.82-29.93-0.42-56.33-0.42-56.33S186.36,249.66,182.43,269.2z"/>
		<path class="st66" d="M357.68,204.71c-0.78,3.34-1.65,6.82-2.37,9.03c-1.11,3.38-7.16,0.58-11.56-2
			c-2.64-1.55-4.68-3.02-4.68-3.02s0.17-2.2,0.3-4.93c0.13-2.42,0.23-5.25,0.19-7.37C343.95,197.98,350.63,200.68,357.68,204.71z"/>
		<path class="st66" d="M163.24,277.4c0,0-11.85,15.4-36.1,14.93c0.92-4.36,1.63-8.71,2.18-12.98
			C134.02,280.67,147.46,283.4,163.24,277.4z"/>
		<path class="st66" d="M141.3,326.7c0,0-17.29,7.13-25.49,2.39c1.36-3.35,2.73-6.98,4.08-10.85
			C123.59,322.25,130.53,327.45,141.3,326.7z"/>
	</g>
	<g>
		<path class="st64" d="M74.39,124.59c0,0-7.67-11.12-16.01-13.41c-8.33-2.3-14.96,3.02-16.27,15.22
			c-1.31,12.2,3.61,18.04,5.12,21.45L74.39,124.59z"/>
		<path class="st65" d="M68.75,131.51c0,0-2.95-8.79-10.36-10.76c-7.41-1.97-10.3,4.26-10.5,10.23c-0.2,5.97,2.3,11.94,4.2,14.63
			C53.99,148.31,68.75,131.51,68.75,131.51z"/>
		<path class="st68" d="M156.86,185.03C156.86,185.03,156.86,185.03,156.86,185.03c-0.22,2.49-0.57,5.05-1.04,7.71
			c-0.27,1.53-0.58,3.11-0.94,4.7c-1.03,4.59-3.11,8.65-5.94,12.25c-15.94,20.32-55.63,25.85-63.99,26.19
			c-9.84,0.39-38.57-14.04-46.18-40.54c-0.34-1.18-0.65-2.36-0.91-3.52c-1.46-6.32-1.85-12.29-1.35-17.9
			c0.17-1.85,0.43-3.66,0.78-5.43v0c1.27-6.37,3.7-12.24,7.01-17.64c0,0,0,0,0,0c3.94-6.44,9.13-12.19,15.07-17.29
			c16.3-13.97,32.49-15.09,44.05-14.76c10.11,0.29,27.26,3.64,37.16,15.02c6.73,7.74,12.56,17.24,15.17,29.46
			C157.13,169.72,157.61,176.92,156.86,185.03z"/>
		<path class="st66" d="M108.97,124.2c-0.53-0.09-1.97,5.9-1.97,5.9s17.27,5.07,22.88,11.86
			C129.88,141.96,122.55,126.61,108.97,124.2z"/>
		<path class="st66" d="M101.99,123.76c0,0-1.53,4.87-2.16,5.26c-0.64,0.39-13.78-0.74-25.14,1.82c0,0,8.07-5.41,16.48-6.59
			c3.99-0.56,6.79-0.74,8.41-0.72C101.38,123.55,101.99,123.76,101.99,123.76z"/>
		<path class="st66" d="M104.43,136.83c-0.89-0.18-1.38,4.99-1.38,4.99s13.84,2.95,18.89,8.86
			C121.95,150.67,117.09,139.45,104.43,136.83z"/>
		<path class="st66" d="M97.48,136.83c0.26,0.05-1.9,4.26-2.36,4.53c-0.46,0.26-11.28-2.69-20.79,0.33
			C74.32,141.68,82.72,134.2,97.48,136.83z"/>
		<path class="st66" d="M102.73,148.57c-0.5-0.16-0.79,3.28-0.52,4s5.97,1.51,10.76,5.31C112.96,157.88,110.73,151.13,102.73,148.57
			z"/>
		<path class="st66" d="M94.4,147.52c0.9,0.16-1.57,3.15-2.23,3.35c-0.66,0.2-9.51-0.72-13.71,0.72
			C78.46,151.59,83.77,145.62,94.4,147.52z"/>
		<path class="st66" d="M68.42,138.53c0.5-0.15-1.51,5.44-2.95,5.84c-1.44,0.39-5.77,1.71-8.66,4.4
			C56.81,148.77,60.15,140.96,68.42,138.53z"/>
		<path class="st66" d="M134.54,150.21c-1.87-0.88-1.25,5.05-0.2,5.9c1.05,0.85,5.05,4.66,5.77,7.35
			C140.12,163.46,140.97,153.23,134.54,150.21z"/>
		<path class="st66" d="M156.86,185.03C156.86,185.03,156.86,185.03,156.86,185.03c-0.55,0.89-1.15,1.8-1.79,2.74
			c-10.53,15.45-31.68,12.79-31.68,12.79c6.49-1.08,14.62-5.72,20.47-12.4c6.97-7.95,11.18-22.31,11.89-24.89
			C157.13,169.72,157.61,176.92,156.86,185.03z"/>
		<path class="st66" d="M155.82,192.73c-0.27,1.53-0.58,3.11-0.94,4.7c-1.03,4.59-3.11,8.65-5.94,12.25
			c-7.19,2.44-14.73,1.1-14.73,1.1C144.78,207.19,152.66,197.27,155.82,192.73z"/>
		<path class="st66" d="M54.78,188.78c0,0-13.36-4.57-17.49-20.3v0c1.27-6.37,3.7-12.24,7.01-17.64
			C44.12,158.65,45.17,178.03,54.78,188.78z"/>
		<path class="st66" d="M50.31,196.39c0,0-7.17-0.33-12.45-4.57c-1.46-6.32-1.85-12.29-1.35-17.9
			C38.02,179.12,41.78,188.76,50.31,196.39z"/>
		<path class="st65" d="M70.5,187.62c0,0-11.2,4.05-16.32,11.86s-5.9,14.69-2.36,19.42c3.54,4.72,5.44,3.8,5.9,9.12
			c0.46,5.31-0.72,14.04,19.42,19.02c20.14,4.99,26.57-6.03,28.01-10.1c1.44-4.07,2.82-6.36,6.23-8.99
			c3.41-2.62,7.35-7.94,5.97-15.87c-1.38-7.94-12-19.61-12-19.61s-2.38,10.32-7.15,15.73c-4.77,5.41-16.92,8.71-17.66,8.66
			c-0.74-0.05-9.74-6.35-12.35-11.41C65.58,200.36,65.73,196.13,70.5,187.62z"/>
		<path class="st64" d="M69.17,198.86c-1.15-0.34-3.89,0.12-3.1,3.57c0.79,3.44,3.99,6.85,6.67,9.48c2.69,2.62,6.33,5.61,7.94,5.77
			c1.61,0.16,10.53-3.35,13.51-5.35c2.98-2,6.23-5.58,5.25-7.35c-0.98-1.77-9.99-1.51-17.12-2.1
			C78.83,202.59,69.17,198.86,69.17,198.86z"/>
		<path class="st64" d="M80.05,215.66c0,0,0.1,3.79-1.62,6c-1.72,2.21-8.27,3.35-13.09,3.05c-4.82-0.3-7.63-3.2-8.27-4.87
			c-0.64-1.67-1.72,3.35,3.44,5.56c5.17,2.21,14.81,2.95,18.99-1.18c0,0,3.25,4.92,11.96,7.04c8.71,2.12,15.15-1.43,15.5-2.61
			c0.34-1.18-3.54,2.61-12.79,0.98c-9.25-1.62-11.71-6.54-12.35-8.56c-0.64-2.02,0.1-5.41,0.1-5.41H80.05z"/>
		<path class="st65" d="M122.87,159.92c5.4-0.7,12.07,2.69,15.35,11.22c3.28,8.53-1.9,21.06-15.09,23.09
			c-13.18,2.03-16.73-3.8-17.51-6.36C104.83,185.3,103.12,162.48,122.87,159.92z"/>
		<path class="st64" d="M130.15,181.73c0,4.76-3.86,8.63-8.63,8.63c-4.76,0-8.63-3.86-8.63-8.63c0-4.76,3.86-8.63,8.63-8.63
			C126.28,173.1,130.15,176.97,130.15,181.73z"/>
		<path class="st65" d="M119.95,180.48c-0.67,1.52-2.17,2.33-3.36,1.81c-1.18-0.52-1.6-2.18-0.93-3.7c0.67-1.52,2.17-2.33,3.36-1.81
			C120.21,177.3,120.62,178.96,119.95,180.48z"/>
		<path class="st65" d="M70.8,152.49c-3.72-2.34-10.97-1.22-15.84,4.9c-4.87,6.12-5.25,19.12,3.74,25.11
			c8.98,5.99,13.1,1.51,14.42-0.39C74.43,180.21,84.39,161.05,70.8,152.49z"/>
		<path class="st64" d="M59.5,170.24c-1.49,4.01,0.31,8.52,4.02,10.07c3.71,1.55,7.92-0.45,9.4-4.47c1.49-4.01-0.31-8.52-4.02-10.07
			C65.19,164.23,60.98,166.23,59.5,170.24z"/>
		<path class="st65" d="M62.15,169.29c-0.6,1.38-0.27,2.83,0.74,3.24c1,0.41,2.3-0.37,2.9-1.75c0.6-1.38,0.27-2.83-0.74-3.24
			C64.05,167.13,62.75,167.92,62.15,169.29z"/>
		<path class="st64" d="M156.01,167.1c0,0-0.78-3-2.24-7.05c-1.46-4.05-3.6-9.14-6.33-13.32c-1.85-2.83-3.77-5.27-5.52-7.28
			c-3.42-3.93-6.14-6.15-6.14-6.15s11.22-7.04,19.48-7.53c8.27-0.49,15,2.36,15.7,13.58C171.65,150.57,161.86,162.38,156.01,167.1z"
			/>
		<path class="st65" d="M161.86,149.05c-1.71,5.05-5.45,9.04-8.09,11c-1.46-4.05-3.6-9.14-6.33-13.32
			c-1.85-2.83-3.77-5.27-5.52-7.28c2.09-1.5,8.32-5.49,14.18-4.53C163.29,136.11,163.98,142.8,161.86,149.05z"/>
		<path class="st64" d="M63.89,215.74c0,0.91-0.73,1.64-1.64,1.64s-1.64-0.73-1.64-1.64s0.73-1.64,1.64-1.64
			S63.89,214.84,63.89,215.74z"/>
		<path class="st64" d="M101.81,221.97c0,0.91-0.73,1.64-1.64,1.64s-1.64-0.73-1.64-1.64s0.73-1.64,1.64-1.64
			S101.81,221.07,101.81,221.97z"/>
		<g>
			<path class="st64" d="M149.37,222.4c-0.25,0-0.49-0.12-0.64-0.33c-0.04-0.06-4.58-6.19-18.12-9.03
				c-13.69-2.87-29.51,3.05-29.67,3.11c-0.4,0.15-0.86-0.05-1.02-0.46c-0.15-0.41,0.05-0.86,0.46-1.02
				c0.66-0.25,16.42-6.15,30.55-3.18c14.21,2.98,18.89,9.39,19.08,9.66c0.25,0.35,0.17,0.85-0.19,1.1
				C149.68,222.35,149.52,222.4,149.37,222.4z"/>
		</g>
		<g>
			<path class="st64" d="M149.47,239.23c-0.25,0-0.5-0.12-0.65-0.34c-8.08-11.87-19.31-16.74-27.3-18.73
				c-8.7-2.17-15.58-1.5-15.65-1.5c-0.43,0.05-0.82-0.27-0.86-0.7c-0.04-0.43,0.27-0.82,0.7-0.86c0.29-0.03,7.18-0.7,16.14,1.52
				c8.28,2.05,19.91,7.08,28.28,19.39c0.24,0.36,0.15,0.85-0.21,1.09C149.77,239.18,149.62,239.23,149.47,239.23z"/>
		</g>
		<g>
			<path class="st64" d="M137.95,246.8c-0.27,0-0.53-0.14-0.68-0.39c-11.01-18.77-33.11-23.69-33.33-23.74
				c-0.43-0.09-0.7-0.51-0.6-0.93c0.09-0.43,0.51-0.7,0.93-0.61c0.23,0.05,23,5.12,34.36,24.48c0.22,0.37,0.09,0.86-0.28,1.08
				C138.23,246.77,138.09,246.8,137.95,246.8z"/>
		</g>
		<g>
			<path class="st64" d="M61.79,210.69c-0.15,0-0.3-0.04-0.43-0.13c-0.24-0.16-24.67-15.9-51.87-10.81
				c-0.43,0.08-0.84-0.2-0.92-0.63c-0.08-0.43,0.2-0.84,0.63-0.92c27.84-5.21,52.77,10.87,53.02,11.04
				c0.36,0.24,0.46,0.73,0.23,1.09C62.3,210.57,62.05,210.69,61.79,210.69z"/>
		</g>
		<g>
			<path class="st64" d="M3.45,213.74c-0.28,0-0.56-0.15-0.7-0.42c-0.2-0.38-0.06-0.86,0.33-1.06c11.05-5.83,25.13-5.96,35-5.04
				c10.65,0.99,18.84,3.39,18.92,3.41c0.42,0.12,0.65,0.56,0.53,0.98c-0.12,0.42-0.56,0.65-0.98,0.53
				c-0.32-0.09-32.21-9.32-52.74,1.52C3.7,213.71,3.57,213.74,3.45,213.74z"/>
		</g>
		<g>
			<path class="st64" d="M7.18,229.58c-0.21,0-0.41-0.08-0.57-0.24c-0.3-0.31-0.29-0.81,0.02-1.11c10.93-10.52,24.26-14,33.52-15.07
				c10.01-1.16,17.34,0.15,17.65,0.2c0.43,0.08,0.71,0.49,0.63,0.92c-0.08,0.43-0.49,0.71-0.92,0.63
				c-0.07-0.01-7.44-1.32-17.24-0.18c-9,1.05-21.95,4.43-32.55,14.64C7.58,229.51,7.38,229.58,7.18,229.58z"/>
		</g>
	</g>
</g>
</svg>
